<mxfile host="app.diagrams.net" modified="2021-08-25T04:22:06.654Z" agent="5.0 (Windows NT 10.0; Win64; x64) AppleWebKit/537.36 (KHTML, like Gecko) Chrome/91.0.4472.77 Safari/537.36" etag="R61aCSSDodH7MPo6nauU" version="14.9.8" type="github" pages="3">
  <diagram id="eFSnvH-j5v0lLI5UnApI" name="IOC加载流程">
    <mxGraphModel dx="854" dy="505" grid="1" gridSize="10" guides="1" tooltips="1" connect="1" arrows="1" fold="1" page="1" pageScale="1" pageWidth="827" pageHeight="1169" math="0" shadow="0">
      <root>
        <mxCell id="0" />
        <mxCell id="1" parent="0" />
        <mxCell id="3bNbBRN6fOfR_KHOpcYK-2" value="&lt;div&gt;&lt;font color=&quot;#000000&quot;&gt;package com.lhb;&lt;/font&gt;&lt;/div&gt;&lt;div&gt;&lt;font color=&quot;#000000&quot;&gt;import com.lhb.service.impl.TestIOCImpl;&lt;/font&gt;&lt;/div&gt;&lt;div&gt;&lt;font color=&quot;#000000&quot;&gt;import org.springframework.context.ApplicationContext;&lt;/font&gt;&lt;/div&gt;&lt;div&gt;&lt;font color=&quot;#000000&quot;&gt;import org.springframework.context.annotation.AnnotationConfigApplicationContext;&lt;/font&gt;&lt;/div&gt;&lt;div&gt;&lt;font color=&quot;#000000&quot;&gt;import org.springframework.context.annotation.ComponentScan;&lt;/font&gt;&lt;/div&gt;&lt;div&gt;&lt;font color=&quot;#000000&quot;&gt;import org.springframework.context.annotation.Configuration;&lt;/font&gt;&lt;/div&gt;&lt;div&gt;&lt;font color=&quot;#000000&quot;&gt;@Configuration&lt;/font&gt;&lt;/div&gt;&lt;div&gt;&lt;font color=&quot;#000000&quot;&gt;@ComponentScan(&quot;com.lhb&quot;)&lt;/font&gt;&lt;/div&gt;&lt;div&gt;&lt;font color=&quot;#000000&quot;&gt;public class ApplicationMain {&lt;/font&gt;&lt;/div&gt;&lt;blockquote style=&quot;margin: 0 0 0 40px ; border: none ; padding: 0px&quot;&gt;&lt;div&gt;&lt;font color=&quot;#000000&quot;&gt;public static void main(String[] args) {&lt;/font&gt;&lt;/div&gt;&lt;/blockquote&gt;&lt;blockquote style=&quot;margin: 0 0 0 40px ; border: none ; padding: 0px&quot;&gt;&lt;blockquote style=&quot;margin: 0 0 0 40px ; border: none ; padding: 0px&quot;&gt;&lt;div&gt;&lt;font color=&quot;#000000&quot;&gt;ApplicationContext applicationContext = new AnnotationConfigApplicationContext(ApplicationMain.class);&lt;/font&gt;&lt;/div&gt;&lt;/blockquote&gt;&lt;blockquote style=&quot;margin: 0 0 0 40px ; border: none ; padding: 0px&quot;&gt;&lt;div&gt;&lt;font color=&quot;#000000&quot;&gt;TestIOCImpl bean = applicationContext.getBean(TestIOCImpl.class);&lt;/font&gt;&lt;/div&gt;&lt;/blockquote&gt;&lt;blockquote style=&quot;margin: 0 0 0 40px ; border: none ; padding: 0px&quot;&gt;&lt;div&gt;&lt;font color=&quot;#000000&quot;&gt;bean.helloIOC(&quot;hello spring ioc&quot;);&lt;/font&gt;&lt;/div&gt;&lt;/blockquote&gt;&lt;/blockquote&gt;&lt;blockquote style=&quot;margin: 0 0 0 40px ; border: none ; padding: 0px&quot;&gt;&lt;div&gt;&lt;font color=&quot;#000000&quot;&gt;}&lt;/font&gt;&lt;/div&gt;&lt;/blockquote&gt;&lt;div&gt;&lt;font color=&quot;#000000&quot;&gt;}&lt;/font&gt;&lt;/div&gt;" style="shape=note;strokeWidth=2;fontSize=14;size=20;whiteSpace=wrap;html=1;fillColor=#fff2cc;strokeColor=#d6b656;fontColor=#666600;align=left;" parent="1" vertex="1">
          <mxGeometry x="70" y="40" width="530" height="270" as="geometry" />
        </mxCell>
        <mxCell id="3bNbBRN6fOfR_KHOpcYK-5" value="" style="edgeStyle=orthogonalEdgeStyle;rounded=0;orthogonalLoop=1;jettySize=auto;html=1;strokeWidth=2;" parent="1" source="3bNbBRN6fOfR_KHOpcYK-3" target="3bNbBRN6fOfR_KHOpcYK-4" edge="1">
          <mxGeometry relative="1" as="geometry" />
        </mxCell>
        <mxCell id="XQ4zk1a1KSQNIVSHgwAn-4" value="AnnotationConfigApplicationContext.java" style="edgeLabel;html=1;align=center;verticalAlign=middle;resizable=0;points=[];" parent="3bNbBRN6fOfR_KHOpcYK-5" vertex="1" connectable="0">
          <mxGeometry x="-0.3" y="-1" relative="1" as="geometry">
            <mxPoint x="1" y="15" as="offset" />
          </mxGeometry>
        </mxCell>
        <mxCell id="3bNbBRN6fOfR_KHOpcYK-3" value="&lt;span style=&quot;font-size: 14px ; text-align: left&quot;&gt;ApplicationContext applicationContext = new AnnotationConfigApplicationContext(ApplicationMain.class);&lt;/span&gt;" style="rounded=0;whiteSpace=wrap;html=1;strokeWidth=2;" parent="1" vertex="1">
          <mxGeometry x="80" y="350" width="390" height="50" as="geometry" />
        </mxCell>
        <mxCell id="3bNbBRN6fOfR_KHOpcYK-7" value="" style="edgeStyle=orthogonalEdgeStyle;rounded=0;orthogonalLoop=1;jettySize=auto;html=1;strokeWidth=2;" parent="1" source="3bNbBRN6fOfR_KHOpcYK-4" target="3bNbBRN6fOfR_KHOpcYK-6" edge="1">
          <mxGeometry relative="1" as="geometry" />
        </mxCell>
        <mxCell id="3bNbBRN6fOfR_KHOpcYK-4" value="&lt;pre style=&quot;font-family: &amp;#34;jetbrains mono&amp;#34; ; font-size: 9.8pt&quot;&gt;&lt;span style=&quot;background-color: rgb(255 , 255 , 255)&quot;&gt;AnnotationConfigApplicationContext构造函数&lt;/span&gt;&lt;/pre&gt;" style="whiteSpace=wrap;html=1;rounded=0;strokeWidth=2;" parent="1" vertex="1">
          <mxGeometry x="120" y="500" width="310" height="40" as="geometry" />
        </mxCell>
        <mxCell id="XQ4zk1a1KSQNIVSHgwAn-1" value="" style="group" parent="1" vertex="1" connectable="0">
          <mxGeometry x="187.5" y="610" width="175" height="170" as="geometry" />
        </mxCell>
        <mxCell id="3bNbBRN6fOfR_KHOpcYK-6" value="" style="whiteSpace=wrap;html=1;rounded=0;strokeWidth=2;" parent="XQ4zk1a1KSQNIVSHgwAn-1" vertex="1">
          <mxGeometry width="175" height="170" as="geometry" />
        </mxCell>
        <mxCell id="3bNbBRN6fOfR_KHOpcYK-8" value="this();" style="rounded=0;whiteSpace=wrap;html=1;strokeWidth=2;" parent="XQ4zk1a1KSQNIVSHgwAn-1" vertex="1">
          <mxGeometry x="12.5" y="20" width="150" height="30" as="geometry" />
        </mxCell>
        <mxCell id="XQ4zk1a1KSQNIVSHgwAn-2" value="register();" style="rounded=0;whiteSpace=wrap;html=1;strokeWidth=2;" parent="XQ4zk1a1KSQNIVSHgwAn-1" vertex="1">
          <mxGeometry x="12.5" y="65" width="150" height="30" as="geometry" />
        </mxCell>
        <mxCell id="XQ4zk1a1KSQNIVSHgwAn-3" value="refresh();" style="rounded=0;whiteSpace=wrap;html=1;strokeWidth=2;" parent="XQ4zk1a1KSQNIVSHgwAn-1" vertex="1">
          <mxGeometry x="12.5" y="115" width="150" height="30" as="geometry" />
        </mxCell>
        <mxCell id="XQ4zk1a1KSQNIVSHgwAn-6" value="" style="edgeStyle=orthogonalEdgeStyle;rounded=0;orthogonalLoop=1;jettySize=auto;html=1;strokeWidth=2;" parent="1" source="3bNbBRN6fOfR_KHOpcYK-8" target="XQ4zk1a1KSQNIVSHgwAn-5" edge="1">
          <mxGeometry relative="1" as="geometry" />
        </mxCell>
        <mxCell id="XQ4zk1a1KSQNIVSHgwAn-9" value="初始化BeanDefinitionReader&lt;br&gt;和BeanDefinitionScanner" style="edgeLabel;html=1;align=center;verticalAlign=middle;resizable=0;points=[];" parent="XQ4zk1a1KSQNIVSHgwAn-6" vertex="1" connectable="0">
          <mxGeometry x="-0.1474" relative="1" as="geometry">
            <mxPoint x="15" y="-23" as="offset" />
          </mxGeometry>
        </mxCell>
        <mxCell id="XQ4zk1a1KSQNIVSHgwAn-18" value="" style="group" parent="1" vertex="1" connectable="0">
          <mxGeometry x="640" y="202.5" width="270" height="205" as="geometry" />
        </mxCell>
        <mxCell id="XQ4zk1a1KSQNIVSHgwAn-5" value="" style="whiteSpace=wrap;html=1;rounded=0;strokeWidth=2;" parent="XQ4zk1a1KSQNIVSHgwAn-18" vertex="1">
          <mxGeometry width="270" height="205" as="geometry" />
        </mxCell>
        <mxCell id="XQ4zk1a1KSQNIVSHgwAn-16" value="new AnnotatedBeanDefinitionReader(this);" style="rounded=0;whiteSpace=wrap;html=1;strokeWidth=2;" parent="XQ4zk1a1KSQNIVSHgwAn-18" vertex="1">
          <mxGeometry x="15" y="32.5" width="240" height="35" as="geometry" />
        </mxCell>
        <mxCell id="XQ4zk1a1KSQNIVSHgwAn-17" value="new ClassPathBeanDefinitionScanner(this);" style="rounded=0;whiteSpace=wrap;html=1;strokeWidth=2;" parent="XQ4zk1a1KSQNIVSHgwAn-18" vertex="1">
          <mxGeometry x="15" y="112.5" width="240" height="35" as="geometry" />
        </mxCell>
        <mxCell id="XQ4zk1a1KSQNIVSHgwAn-20" value="" style="edgeStyle=orthogonalEdgeStyle;rounded=0;orthogonalLoop=1;jettySize=auto;html=1;strokeWidth=2;" parent="1" source="XQ4zk1a1KSQNIVSHgwAn-16" target="XQ4zk1a1KSQNIVSHgwAn-19" edge="1">
          <mxGeometry relative="1" as="geometry" />
        </mxCell>
        <mxCell id="XQ4zk1a1KSQNIVSHgwAn-24" value="" style="group" parent="1" vertex="1" connectable="0">
          <mxGeometry x="1080" y="100" width="370" height="145" as="geometry" />
        </mxCell>
        <mxCell id="XQ4zk1a1KSQNIVSHgwAn-19" value="AnnotationConfigUtils.&lt;br&gt;registerAnnotationConfigProcessors(this.registry);&lt;br&gt;这个方法中会注册一些spring最基础的一些配置类解析类。&lt;br&gt;例如：&lt;br&gt;&lt;ul&gt;&lt;li&gt;ConfigurationClassPostProcessor：解析@Configuration&lt;br&gt;&lt;/li&gt;&lt;li&gt;AutowiredAnnotationBeanPostProcessor: 解析@Autowired 等&lt;/li&gt;&lt;/ul&gt;" style="whiteSpace=wrap;html=1;rounded=0;strokeWidth=2;align=left;" parent="XQ4zk1a1KSQNIVSHgwAn-24" vertex="1">
          <mxGeometry width="370" height="145" as="geometry" />
        </mxCell>
        <mxCell id="XQ4zk1a1KSQNIVSHgwAn-23" value="AnnotatedBeanDefinitionReader()方法" style="text;html=1;align=center;verticalAlign=middle;resizable=0;points=[];autosize=1;strokeColor=none;" parent="XQ4zk1a1KSQNIVSHgwAn-24" vertex="1">
          <mxGeometry x="69.9993023255814" y="-0.0033653846153836042" width="220" height="20" as="geometry" />
        </mxCell>
        <mxCell id="XQ4zk1a1KSQNIVSHgwAn-28" value="" style="edgeStyle=orthogonalEdgeStyle;rounded=0;orthogonalLoop=1;jettySize=auto;html=1;strokeWidth=2;" parent="1" source="XQ4zk1a1KSQNIVSHgwAn-17" target="XQ4zk1a1KSQNIVSHgwAn-27" edge="1">
          <mxGeometry relative="1" as="geometry" />
        </mxCell>
        <mxCell id="XQ4zk1a1KSQNIVSHgwAn-29" value="扫描符合条件的bean并且将&lt;br&gt;bean注册到beanDefinitionMap" style="edgeLabel;html=1;align=center;verticalAlign=middle;resizable=0;points=[];" parent="XQ4zk1a1KSQNIVSHgwAn-28" vertex="1" connectable="0">
          <mxGeometry x="-0.2736" y="1" relative="1" as="geometry">
            <mxPoint x="7" y="41" as="offset" />
          </mxGeometry>
        </mxCell>
        <mxCell id="XQ4zk1a1KSQNIVSHgwAn-36" value="" style="edgeStyle=orthogonalEdgeStyle;rounded=0;orthogonalLoop=1;jettySize=auto;html=1;strokeWidth=2;entryX=-0.001;entryY=0.531;entryDx=0;entryDy=0;entryPerimeter=0;" parent="1" source="XQ4zk1a1KSQNIVSHgwAn-2" target="XQ4zk1a1KSQNIVSHgwAn-38" edge="1">
          <mxGeometry relative="1" as="geometry">
            <mxPoint x="700" y="695" as="targetPoint" />
          </mxGeometry>
        </mxCell>
        <mxCell id="XQ4zk1a1KSQNIVSHgwAn-37" value="&lt;div&gt;&lt;span style=&quot;font-size: 11px&quot;&gt;&lt;br&gt;&lt;/span&gt;&lt;/div&gt;&lt;div&gt;&lt;span style=&quot;font-size: 11px&quot;&gt;AnnotatedBeanDefinitionReader.register()&lt;/span&gt;&lt;/div&gt;" style="edgeLabel;html=1;align=center;verticalAlign=middle;resizable=0;points=[];rotation=0;" parent="XQ4zk1a1KSQNIVSHgwAn-36" vertex="1" connectable="0">
          <mxGeometry x="-0.2551" y="2" relative="1" as="geometry">
            <mxPoint x="47" y="52" as="offset" />
          </mxGeometry>
        </mxCell>
        <mxCell id="XQ4zk1a1KSQNIVSHgwAn-50" value="" style="whiteSpace=wrap;html=1;rounded=0;strokeWidth=2;" parent="1" vertex="1">
          <mxGeometry x="100" y="860" width="350" height="390" as="geometry" />
        </mxCell>
        <mxCell id="XQ4zk1a1KSQNIVSHgwAn-51" value="" style="edgeStyle=orthogonalEdgeStyle;rounded=0;orthogonalLoop=1;jettySize=auto;html=1;strokeWidth=2;" parent="1" source="XQ4zk1a1KSQNIVSHgwAn-3" target="XQ4zk1a1KSQNIVSHgwAn-50" edge="1">
          <mxGeometry relative="1" as="geometry" />
        </mxCell>
        <mxCell id="XQ4zk1a1KSQNIVSHgwAn-52" value="刷新上下文，将注册的bean&lt;br&gt;以及环境参数应用到上下文" style="edgeLabel;html=1;align=center;verticalAlign=middle;resizable=0;points=[];" parent="XQ4zk1a1KSQNIVSHgwAn-51" vertex="1" connectable="0">
          <mxGeometry x="0.4167" y="-4" relative="1" as="geometry">
            <mxPoint x="4" y="-24" as="offset" />
          </mxGeometry>
        </mxCell>
        <mxCell id="XQ4zk1a1KSQNIVSHgwAn-55" style="edgeStyle=orthogonalEdgeStyle;rounded=0;orthogonalLoop=1;jettySize=auto;html=1;exitX=0.5;exitY=1;exitDx=0;exitDy=0;entryX=0.5;entryY=0;entryDx=0;entryDy=0;strokeWidth=2;" parent="1" source="XQ4zk1a1KSQNIVSHgwAn-53" target="XQ4zk1a1KSQNIVSHgwAn-54" edge="1">
          <mxGeometry relative="1" as="geometry" />
        </mxCell>
        <mxCell id="XQ4zk1a1KSQNIVSHgwAn-53" value="prepareRefresh();准备上下文之前，首先刷新一下，会初始化一些环境参数和属性值" style="rounded=0;whiteSpace=wrap;html=1;strokeWidth=2;" parent="1" vertex="1">
          <mxGeometry x="130" y="880" width="280" height="40" as="geometry" />
        </mxCell>
        <mxCell id="XQ4zk1a1KSQNIVSHgwAn-57" style="edgeStyle=orthogonalEdgeStyle;rounded=0;orthogonalLoop=1;jettySize=auto;html=1;exitX=0.5;exitY=1;exitDx=0;exitDy=0;entryX=0.5;entryY=0;entryDx=0;entryDy=0;strokeWidth=2;" parent="1" source="XQ4zk1a1KSQNIVSHgwAn-54" target="XQ4zk1a1KSQNIVSHgwAn-56" edge="1">
          <mxGeometry relative="1" as="geometry" />
        </mxCell>
        <mxCell id="XQ4zk1a1KSQNIVSHgwAn-54" value="obtainFreshBeanFactory();通知子类刷新内部bean Factory" style="rounded=0;whiteSpace=wrap;html=1;strokeWidth=2;" parent="1" vertex="1">
          <mxGeometry x="130" y="940" width="280" height="40" as="geometry" />
        </mxCell>
        <mxCell id="XQ4zk1a1KSQNIVSHgwAn-59" value="" style="edgeStyle=orthogonalEdgeStyle;rounded=0;orthogonalLoop=1;jettySize=auto;html=1;strokeWidth=2;" parent="1" source="XQ4zk1a1KSQNIVSHgwAn-56" target="XQ4zk1a1KSQNIVSHgwAn-58" edge="1">
          <mxGeometry relative="1" as="geometry" />
        </mxCell>
        <mxCell id="XQ4zk1a1KSQNIVSHgwAn-61" value="" style="edgeStyle=orthogonalEdgeStyle;rounded=0;orthogonalLoop=1;jettySize=auto;html=1;strokeWidth=2;" parent="1" source="XQ4zk1a1KSQNIVSHgwAn-56" target="XQ4zk1a1KSQNIVSHgwAn-60" edge="1">
          <mxGeometry relative="1" as="geometry" />
        </mxCell>
        <mxCell id="XQ4zk1a1KSQNIVSHgwAn-56" value="prepareBeanFactory(beanFactory);准备上下文要用的的bean factory" style="rounded=0;whiteSpace=wrap;html=1;strokeWidth=2;" parent="1" vertex="1">
          <mxGeometry x="130" y="1000" width="280" height="40" as="geometry" />
        </mxCell>
        <mxCell id="XQ4zk1a1KSQNIVSHgwAn-58" value="初始化bean工厂。&lt;br&gt;设置类加载器、设置回调函数等" style="whiteSpace=wrap;html=1;rounded=0;strokeWidth=2;" parent="1" vertex="1">
          <mxGeometry x="570" y="990" width="120" height="60" as="geometry" />
        </mxCell>
        <mxCell id="XQ4zk1a1KSQNIVSHgwAn-60" value="postProcessBeanFactory(beanFactory); bean工厂后置处理器。在这个阶段spring已经完成了标准初始化过程，所有的bean都已经加载完毕，但是所有的bean还没有进行初始化；我们可以在这个阶段向容器中注入自定义的bean" style="rounded=0;whiteSpace=wrap;html=1;strokeWidth=2;" parent="1" vertex="1">
          <mxGeometry x="130" y="1070" width="280" height="80" as="geometry" />
        </mxCell>
        <mxCell id="XQ4zk1a1KSQNIVSHgwAn-64" value="" style="edgeStyle=orthogonalEdgeStyle;rounded=0;orthogonalLoop=1;jettySize=auto;html=1;strokeWidth=2;" parent="1" source="XQ4zk1a1KSQNIVSHgwAn-62" target="XQ4zk1a1KSQNIVSHgwAn-63" edge="1">
          <mxGeometry relative="1" as="geometry" />
        </mxCell>
        <mxCell id="XQ4zk1a1KSQNIVSHgwAn-62" value="invokeBeanFactoryPostProcessors(beanFactory);" style="rounded=0;whiteSpace=wrap;html=1;strokeWidth=2;" parent="1" vertex="1">
          <mxGeometry x="130" y="1169" width="280" height="61" as="geometry" />
        </mxCell>
        <mxCell id="XQ4zk1a1KSQNIVSHgwAn-63" value="这个阶段回去解析@Component、@ComponentScan、@Bean、@Import等注解" style="whiteSpace=wrap;html=1;rounded=0;strokeWidth=2;" parent="1" vertex="1">
          <mxGeometry x="570" y="1159.25" width="170" height="80.5" as="geometry" />
        </mxCell>
        <mxCell id="DmthzuD-8GEoQ6VqeyMm-1" value="" style="group" parent="1" vertex="1" connectable="0">
          <mxGeometry x="1120" y="282.5" width="389" height="245" as="geometry" />
        </mxCell>
        <mxCell id="XQ4zk1a1KSQNIVSHgwAn-27" value="" style="whiteSpace=wrap;html=1;rounded=0;strokeWidth=2;" parent="DmthzuD-8GEoQ6VqeyMm-1" vertex="1">
          <mxGeometry width="389" height="245" as="geometry" />
        </mxCell>
        <mxCell id="XQ4zk1a1KSQNIVSHgwAn-30" value="registerDefaultFilters()注册默认过滤器&lt;br&gt;&lt;br&gt;&lt;span&gt;为@Component注册默认过滤器。&lt;/span&gt;&lt;br&gt;&lt;div&gt;这将隐式注册所有具有@Component元注释的注释，包括@Repository 、 @Service和@Controller型注释。&lt;/div&gt;&lt;div&gt;还支持 Java EE 6 的javax.annotation.ManagedBean和 JSR-330 的javax.inject.Named注释（如果可用）&lt;/div&gt;" style="rounded=0;whiteSpace=wrap;html=1;strokeWidth=2;" parent="DmthzuD-8GEoQ6VqeyMm-1" vertex="1">
          <mxGeometry x="22" y="10" width="338.5" height="100" as="geometry" />
        </mxCell>
        <mxCell id="XQ4zk1a1KSQNIVSHgwAn-31" value="setEnvironment(environment); 设置环境参数" style="rounded=0;whiteSpace=wrap;html=1;strokeWidth=2;" parent="DmthzuD-8GEoQ6VqeyMm-1" vertex="1">
          <mxGeometry x="25.75" y="137" width="337.5" height="35" as="geometry" />
        </mxCell>
        <mxCell id="XQ4zk1a1KSQNIVSHgwAn-32" style="edgeStyle=orthogonalEdgeStyle;rounded=0;orthogonalLoop=1;jettySize=auto;html=1;exitX=0.5;exitY=1;exitDx=0;exitDy=0;strokeWidth=2;entryX=0.5;entryY=0;entryDx=0;entryDy=0;" parent="DmthzuD-8GEoQ6VqeyMm-1" source="XQ4zk1a1KSQNIVSHgwAn-30" target="XQ4zk1a1KSQNIVSHgwAn-31" edge="1">
          <mxGeometry relative="1" as="geometry">
            <mxPoint x="191.75" y="170" as="targetPoint" />
          </mxGeometry>
        </mxCell>
        <mxCell id="XQ4zk1a1KSQNIVSHgwAn-33" value="setResourceLoader(resourceLoader);设置ResourceLoader以用于资源位置" style="rounded=0;whiteSpace=wrap;html=1;strokeWidth=2;" parent="DmthzuD-8GEoQ6VqeyMm-1" vertex="1">
          <mxGeometry x="25.75" y="200" width="337.5" height="35" as="geometry" />
        </mxCell>
        <mxCell id="XQ4zk1a1KSQNIVSHgwAn-34" value="" style="edgeStyle=orthogonalEdgeStyle;rounded=0;orthogonalLoop=1;jettySize=auto;html=1;strokeWidth=2;" parent="DmthzuD-8GEoQ6VqeyMm-1" source="XQ4zk1a1KSQNIVSHgwAn-31" target="XQ4zk1a1KSQNIVSHgwAn-33" edge="1">
          <mxGeometry relative="1" as="geometry" />
        </mxCell>
        <mxCell id="DmthzuD-8GEoQ6VqeyMm-3" style="edgeStyle=orthogonalEdgeStyle;curved=1;rounded=0;orthogonalLoop=1;jettySize=auto;html=1;exitX=0.5;exitY=1;exitDx=0;exitDy=0;entryX=0.5;entryY=0;entryDx=0;entryDy=0;strokeWidth=2;" parent="1" source="XQ4zk1a1KSQNIVSHgwAn-41" target="XQ4zk1a1KSQNIVSHgwAn-45" edge="1">
          <mxGeometry relative="1" as="geometry" />
        </mxCell>
        <mxCell id="XQ4zk1a1KSQNIVSHgwAn-41" value="doRegisterBean（）获取bean元数据，并且根据元数据注册相应类型的bean" style="rounded=0;whiteSpace=wrap;html=1;strokeWidth=2;" parent="1" vertex="1">
          <mxGeometry x="977.7440278988665" y="699.999512195122" width="287.9142109851787" height="40.20731707317072" as="geometry" />
        </mxCell>
        <mxCell id="XQ4zk1a1KSQNIVSHgwAn-42" value="" style="edgeStyle=orthogonalEdgeStyle;rounded=0;orthogonalLoop=1;jettySize=auto;html=1;strokeWidth=2;" parent="1" source="XQ4zk1a1KSQNIVSHgwAn-39" target="XQ4zk1a1KSQNIVSHgwAn-41" edge="1">
          <mxGeometry x="930" y="585" as="geometry" />
        </mxCell>
        <mxCell id="XQ4zk1a1KSQNIVSHgwAn-38" value="loop" style="shape=umlFrame;whiteSpace=wrap;html=1;strokeWidth=2;" parent="1" vertex="1">
          <mxGeometry x="930" y="585" width="380" height="389.39" as="geometry" />
        </mxCell>
        <mxCell id="XQ4zk1a1KSQNIVSHgwAn-39" value="registerBean(componentClass);&lt;br&gt;注册给定的bean" style="rounded=0;whiteSpace=wrap;html=1;strokeWidth=2;" parent="1" vertex="1">
          <mxGeometry x="977.7440278988665" y="627.6829268292682" width="287.9142109851787" height="40.20731707317072" as="geometry" />
        </mxCell>
        <mxCell id="XQ4zk1a1KSQNIVSHgwAn-45" value="registerBeanDefinition(...)将bean定义注册到beaDefinitionMap中" style="rounded=0;whiteSpace=wrap;html=1;strokeWidth=2;" parent="1" vertex="1">
          <mxGeometry x="974.011508282476" y="790.0043902439024" width="295.3792502179599" height="51.21951219512194" as="geometry" />
        </mxCell>
        <mxCell id="XQ4zk1a1KSQNIVSHgwAn-48" value="registry.registerBeanDefinition(...)真正进行注册bean逻辑,这里调用的是DefaultListableBeanFactory类中的registerBeanDefinition()方法进行注册" style="whiteSpace=wrap;html=1;rounded=0;strokeWidth=2;" parent="1" vertex="1">
          <mxGeometry x="961.8702702702703" y="885.85" width="319.6540540540541" height="64.15" as="geometry" />
        </mxCell>
        <mxCell id="XQ4zk1a1KSQNIVSHgwAn-49" value="" style="edgeStyle=orthogonalEdgeStyle;rounded=0;orthogonalLoop=1;jettySize=auto;html=1;strokeWidth=2;" parent="1" source="XQ4zk1a1KSQNIVSHgwAn-45" target="XQ4zk1a1KSQNIVSHgwAn-48" edge="1">
          <mxGeometry x="930" y="585" as="geometry" />
        </mxCell>
      </root>
    </mxGraphModel>
  </diagram>
  <diagram id="hepXTsCa3l8ix0Icivxy" name="ConfigurationClassPostProcessor">
    <mxGraphModel dx="854" dy="505" grid="1" gridSize="10" guides="1" tooltips="1" connect="1" arrows="1" fold="1" page="1" pageScale="1" pageWidth="827" pageHeight="1169" math="0" shadow="0">
      <root>
        <mxCell id="EWgUU95VU_tfvLXolziu-0" />
        <mxCell id="EWgUU95VU_tfvLXolziu-1" parent="EWgUU95VU_tfvLXolziu-0" />
        <mxCell id="EWgUU95VU_tfvLXolziu-2" value="由于ConfigurationClassPostProcessor实现了BeanDefinitionRegistryPostProcessor接口，所以在执行后置处理器的时候，会执行该方法" style="shape=note;strokeWidth=2;fontSize=14;size=20;whiteSpace=wrap;html=1;fillColor=#fff2cc;strokeColor=#d6b656;fontColor=#666600;" parent="EWgUU95VU_tfvLXolziu-1" vertex="1">
          <mxGeometry x="100" y="60" width="240" height="130" as="geometry" />
        </mxCell>
        <mxCell id="EWgUU95VU_tfvLXolziu-4" style="edgeStyle=orthogonalEdgeStyle;rounded=0;orthogonalLoop=1;jettySize=auto;html=1;entryX=1;entryY=0.5;entryDx=0;entryDy=0;entryPerimeter=0;strokeWidth=2;curved=1;" parent="EWgUU95VU_tfvLXolziu-1" source="EWgUU95VU_tfvLXolziu-3" target="EWgUU95VU_tfvLXolziu-2" edge="1">
          <mxGeometry relative="1" as="geometry" />
        </mxCell>
        <mxCell id="EWgUU95VU_tfvLXolziu-6" value="" style="edgeStyle=orthogonalEdgeStyle;curved=1;rounded=0;orthogonalLoop=1;jettySize=auto;html=1;strokeWidth=2;" parent="EWgUU95VU_tfvLXolziu-1" source="EWgUU95VU_tfvLXolziu-3" target="EWgUU95VU_tfvLXolziu-5" edge="1">
          <mxGeometry relative="1" as="geometry" />
        </mxCell>
        <mxCell id="EWgUU95VU_tfvLXolziu-3" value="postProcessBeanDefinitionRegistry()" style="whiteSpace=wrap;html=1;fillColor=#FF66B3;strokeWidth=2;" parent="EWgUU95VU_tfvLXolziu-1" vertex="1">
          <mxGeometry x="435" y="70" width="280" height="60" as="geometry" />
        </mxCell>
        <mxCell id="EWgUU95VU_tfvLXolziu-8" value="" style="rounded=0;orthogonalLoop=1;jettySize=auto;html=1;strokeWidth=2;" parent="EWgUU95VU_tfvLXolziu-1" source="EWgUU95VU_tfvLXolziu-5" target="EWgUU95VU_tfvLXolziu-7" edge="1">
          <mxGeometry relative="1" as="geometry" />
        </mxCell>
        <mxCell id="EWgUU95VU_tfvLXolziu-5" value="processConfigBeanDefinition()" style="whiteSpace=wrap;html=1;fillColor=#FF66B3;strokeWidth=2;" parent="EWgUU95VU_tfvLXolziu-1" vertex="1">
          <mxGeometry x="435" y="170" width="280" height="60" as="geometry" />
        </mxCell>
        <mxCell id="EWgUU95VU_tfvLXolziu-10" style="edgeStyle=none;rounded=0;orthogonalLoop=1;jettySize=auto;html=1;exitX=0;exitY=0.5;exitDx=0;exitDy=0;entryX=0;entryY=0;entryDx=205;entryDy=55;entryPerimeter=0;strokeWidth=2;" parent="EWgUU95VU_tfvLXolziu-1" source="EWgUU95VU_tfvLXolziu-7" target="EWgUU95VU_tfvLXolziu-9" edge="1">
          <mxGeometry relative="1" as="geometry" />
        </mxCell>
        <mxCell id="EWgUU95VU_tfvLXolziu-12" value="" style="edgeStyle=none;rounded=0;orthogonalLoop=1;jettySize=auto;html=1;strokeWidth=2;" parent="EWgUU95VU_tfvLXolziu-1" source="EWgUU95VU_tfvLXolziu-7" target="EWgUU95VU_tfvLXolziu-11" edge="1">
          <mxGeometry relative="1" as="geometry" />
        </mxCell>
        <mxCell id="EWgUU95VU_tfvLXolziu-7" value="ConfigurationClasUtils.checkConfigurationClassCandidate()&lt;br&gt;判断类是不是一个配置类，为BeanDefinition的configurationClass属性赋值，设置为lite，full或者null" style="whiteSpace=wrap;html=1;fillColor=#FF66B3;strokeWidth=2;" parent="EWgUU95VU_tfvLXolziu-1" vertex="1">
          <mxGeometry x="410" y="270" width="330" height="60" as="geometry" />
        </mxCell>
        <mxCell id="EWgUU95VU_tfvLXolziu-9" value="在此时为BeanDefinition标识为lite或者full，在后面会根据该属性判断类是否需要CGLIB增强" style="shape=note;strokeWidth=2;fontSize=14;size=20;whiteSpace=wrap;html=1;fillColor=#fff2cc;strokeColor=#d6b656;fontColor=#666600;" parent="EWgUU95VU_tfvLXolziu-1" vertex="1">
          <mxGeometry x="125" y="240" width="205" height="90" as="geometry" />
        </mxCell>
        <mxCell id="EWgUU95VU_tfvLXolziu-14" style="edgeStyle=none;rounded=0;orthogonalLoop=1;jettySize=auto;html=1;exitX=0;exitY=0.5;exitDx=0;exitDy=0;entryX=0.996;entryY=0.557;entryDx=0;entryDy=0;entryPerimeter=0;strokeWidth=2;" parent="EWgUU95VU_tfvLXolziu-1" source="EWgUU95VU_tfvLXolziu-11" target="EWgUU95VU_tfvLXolziu-13" edge="1">
          <mxGeometry relative="1" as="geometry" />
        </mxCell>
        <mxCell id="EWgUU95VU_tfvLXolziu-16" value="" style="edgeStyle=none;rounded=0;orthogonalLoop=1;jettySize=auto;html=1;strokeWidth=2;" parent="EWgUU95VU_tfvLXolziu-1" source="EWgUU95VU_tfvLXolziu-11" target="EWgUU95VU_tfvLXolziu-15" edge="1">
          <mxGeometry relative="1" as="geometry" />
        </mxCell>
        <mxCell id="EWgUU95VU_tfvLXolziu-11" value="ConfigurationClassParser.parse()" style="whiteSpace=wrap;html=1;fillColor=#FF66B3;strokeWidth=2;" parent="EWgUU95VU_tfvLXolziu-1" vertex="1">
          <mxGeometry x="410" y="370" width="330" height="60" as="geometry" />
        </mxCell>
        <mxCell id="EWgUU95VU_tfvLXolziu-13" value="经过这一步将@ComponentScan、@Bean、@Import等注解要注册的类扫描出来" style="shape=note;strokeWidth=2;fontSize=14;size=20;whiteSpace=wrap;html=1;fillColor=#fff2cc;strokeColor=#d6b656;fontColor=#666600;" parent="EWgUU95VU_tfvLXolziu-1" vertex="1">
          <mxGeometry x="130" y="370" width="200" height="80" as="geometry" />
        </mxCell>
        <mxCell id="EWgUU95VU_tfvLXolziu-18" style="edgeStyle=none;rounded=0;orthogonalLoop=1;jettySize=auto;html=1;exitX=0;exitY=0.5;exitDx=0;exitDy=0;entryX=0;entryY=0;entryDx=255;entryDy=62.5;entryPerimeter=0;strokeWidth=2;" parent="EWgUU95VU_tfvLXolziu-1" source="EWgUU95VU_tfvLXolziu-15" target="EWgUU95VU_tfvLXolziu-17" edge="1">
          <mxGeometry relative="1" as="geometry" />
        </mxCell>
        <mxCell id="EWgUU95VU_tfvLXolziu-20" value="" style="edgeStyle=orthogonalEdgeStyle;rounded=0;orthogonalLoop=1;jettySize=auto;html=1;strokeWidth=2;entryX=0.5;entryY=0;entryDx=0;entryDy=0;entryPerimeter=0;" parent="EWgUU95VU_tfvLXolziu-1" source="EWgUU95VU_tfvLXolziu-15" target="EWgUU95VU_tfvLXolziu-19" edge="1">
          <mxGeometry relative="1" as="geometry" />
        </mxCell>
        <mxCell id="EWgUU95VU_tfvLXolziu-15" value="this.reader.loadBeanDefinitions(configClasses)" style="whiteSpace=wrap;html=1;fillColor=#FF66B3;strokeWidth=2;" parent="EWgUU95VU_tfvLXolziu-1" vertex="1">
          <mxGeometry x="410" y="480" width="330" height="60" as="geometry" />
        </mxCell>
        <mxCell id="EWgUU95VU_tfvLXolziu-17" value="经过这一步，会将@Import、@Bean注册的类变成BeanDefinition。接下来会执行BeanFactoryPostProcessor类的postProcessBeanFactory()方法" style="shape=note;strokeWidth=2;fontSize=14;size=20;whiteSpace=wrap;html=1;fillColor=#fff2cc;strokeColor=#d6b656;fontColor=#666600;" parent="EWgUU95VU_tfvLXolziu-1" vertex="1">
          <mxGeometry x="85" y="480" width="255" height="105" as="geometry" />
        </mxCell>
        <mxCell id="EWgUU95VU_tfvLXolziu-22" value="" style="edgeStyle=orthogonalEdgeStyle;rounded=0;orthogonalLoop=1;jettySize=auto;html=1;strokeWidth=2;" parent="EWgUU95VU_tfvLXolziu-1" source="EWgUU95VU_tfvLXolziu-19" target="EWgUU95VU_tfvLXolziu-21" edge="1">
          <mxGeometry relative="1" as="geometry" />
        </mxCell>
        <mxCell id="EWgUU95VU_tfvLXolziu-19" value="postProcessBeanFactory()" style="whiteSpace=wrap;html=1;fillColor=#FF66B3;strokeWidth=2;" parent="EWgUU95VU_tfvLXolziu-1" vertex="1">
          <mxGeometry x="841" y="140" width="330" height="60" as="geometry" />
        </mxCell>
        <mxCell id="EWgUU95VU_tfvLXolziu-24" value="" style="edgeStyle=orthogonalEdgeStyle;rounded=0;orthogonalLoop=1;jettySize=auto;html=1;strokeWidth=2;" parent="EWgUU95VU_tfvLXolziu-1" source="EWgUU95VU_tfvLXolziu-21" target="EWgUU95VU_tfvLXolziu-23" edge="1">
          <mxGeometry relative="1" as="geometry" />
        </mxCell>
        <mxCell id="EWgUU95VU_tfvLXolziu-28" style="edgeStyle=orthogonalEdgeStyle;curved=1;rounded=0;orthogonalLoop=1;jettySize=auto;html=1;exitX=1;exitY=0.5;exitDx=0;exitDy=0;entryX=0;entryY=0;entryDx=190;entryDy=50;entryPerimeter=0;strokeWidth=2;" parent="EWgUU95VU_tfvLXolziu-1" source="EWgUU95VU_tfvLXolziu-21" target="EWgUU95VU_tfvLXolziu-26" edge="1">
          <mxGeometry relative="1" as="geometry" />
        </mxCell>
        <mxCell id="EWgUU95VU_tfvLXolziu-21" value="enhanceConfigurationClasses" style="whiteSpace=wrap;html=1;fillColor=#FF66B3;strokeWidth=2;" parent="EWgUU95VU_tfvLXolziu-1" vertex="1">
          <mxGeometry x="841" y="240" width="330" height="60" as="geometry" />
        </mxCell>
        <mxCell id="EWgUU95VU_tfvLXolziu-27" style="edgeStyle=orthogonalEdgeStyle;rounded=0;orthogonalLoop=1;jettySize=auto;html=1;exitX=0.5;exitY=1;exitDx=0;exitDy=0;entryX=0.416;entryY=-0.012;entryDx=0;entryDy=0;entryPerimeter=0;strokeWidth=2;curved=1;" parent="EWgUU95VU_tfvLXolziu-1" source="EWgUU95VU_tfvLXolziu-23" target="EWgUU95VU_tfvLXolziu-25" edge="1">
          <mxGeometry relative="1" as="geometry" />
        </mxCell>
        <mxCell id="EWgUU95VU_tfvLXolziu-23" value="beanFactory.addBeanPostProcessor(new ImportAwareBeanPostProcessor(beanFactory))" style="whiteSpace=wrap;html=1;fillColor=#FF66B3;strokeWidth=2;" parent="EWgUU95VU_tfvLXolziu-1" vertex="1">
          <mxGeometry x="841" y="350" width="330" height="60" as="geometry" />
        </mxCell>
        <mxCell id="EWgUU95VU_tfvLXolziu-25" value="添加一个Bean后置处理器，干预后面Bean的创建过程" style="shape=note;strokeWidth=2;fontSize=14;size=20;whiteSpace=wrap;html=1;fillColor=#fff2cc;strokeColor=#d6b656;fontColor=#666600;" parent="EWgUU95VU_tfvLXolziu-1" vertex="1">
          <mxGeometry x="821" y="505" width="190" height="80" as="geometry" />
        </mxCell>
        <mxCell id="EWgUU95VU_tfvLXolziu-26" value="为属性为full的BeanDefinition进行CGLIB增强" style="shape=note;strokeWidth=2;fontSize=14;size=20;whiteSpace=wrap;html=1;fillColor=#fff2cc;strokeColor=#d6b656;fontColor=#666600;" parent="EWgUU95VU_tfvLXolziu-1" vertex="1">
          <mxGeometry x="1051" y="492.5" width="190" height="80" as="geometry" />
        </mxCell>
      </root>
    </mxGraphModel>
  </diagram>
  <diagram id="wAoom7wSBqgBpTLdjMDt" name="Bean的后置处理器">
    <mxGraphModel dx="854" dy="505" grid="1" gridSize="10" guides="1" tooltips="1" connect="1" arrows="1" fold="1" page="1" pageScale="1" pageWidth="827" pageHeight="1169" math="0" shadow="0">
      <root>
        <mxCell id="hJfkYiy2iH-WeA1mBsib-0" />
        <mxCell id="hJfkYiy2iH-WeA1mBsib-1" parent="hJfkYiy2iH-WeA1mBsib-0" />
        <mxCell id="hJfkYiy2iH-WeA1mBsib-2" value="" style="rounded=0;whiteSpace=wrap;html=1;fillColor=#f5f5f5;strokeColor=#666666;gradientColor=#b3b3b3;strokeWidth=2;" vertex="1" parent="hJfkYiy2iH-WeA1mBsib-1">
          <mxGeometry x="40" y="50" width="340" height="610" as="geometry" />
        </mxCell>
        <mxCell id="hJfkYiy2iH-WeA1mBsib-3" value="&lt;b&gt;bean的后置处理器9次调用&lt;/b&gt;" style="text;html=1;strokeColor=none;fillColor=none;align=center;verticalAlign=middle;whiteSpace=wrap;rounded=0;" vertex="1" parent="hJfkYiy2iH-WeA1mBsib-1">
          <mxGeometry x="120" y="60" width="160" height="20" as="geometry" />
        </mxCell>
        <mxCell id="hJfkYiy2iH-WeA1mBsib-61" value="" style="edgeStyle=orthogonalEdgeStyle;rounded=0;orthogonalLoop=1;jettySize=auto;html=1;strokeWidth=2;" edge="1" parent="hJfkYiy2iH-WeA1mBsib-1" source="hJfkYiy2iH-WeA1mBsib-4" target="hJfkYiy2iH-WeA1mBsib-60">
          <mxGeometry relative="1" as="geometry" />
        </mxCell>
        <mxCell id="hJfkYiy2iH-WeA1mBsib-62" value="application.close()" style="edgeLabel;html=1;align=center;verticalAlign=middle;resizable=0;points=[];" vertex="1" connectable="0" parent="hJfkYiy2iH-WeA1mBsib-61">
          <mxGeometry x="-0.2426" y="-2" relative="1" as="geometry">
            <mxPoint as="offset" />
          </mxGeometry>
        </mxCell>
        <mxCell id="hJfkYiy2iH-WeA1mBsib-4" value="" style="rounded=0;whiteSpace=wrap;html=1;strokeWidth=2;gradientColor=#7ea6e0;fillColor=#dae8fc;strokeColor=#6c8ebf;" vertex="1" parent="hJfkYiy2iH-WeA1mBsib-1">
          <mxGeometry x="570" y="20" width="220" height="470" as="geometry" />
        </mxCell>
        <mxCell id="hJfkYiy2iH-WeA1mBsib-8" value="" style="edgeStyle=orthogonalEdgeStyle;rounded=0;orthogonalLoop=1;jettySize=auto;html=1;strokeWidth=2;" edge="1" parent="hJfkYiy2iH-WeA1mBsib-1" source="hJfkYiy2iH-WeA1mBsib-5" target="hJfkYiy2iH-WeA1mBsib-7">
          <mxGeometry relative="1" as="geometry" />
        </mxCell>
        <mxCell id="hJfkYiy2iH-WeA1mBsib-5" value="createBean()" style="rounded=0;whiteSpace=wrap;html=1;strokeWidth=2;gradientColor=#97d077;fillColor=#d5e8d4;strokeColor=#82b366;" vertex="1" parent="hJfkYiy2iH-WeA1mBsib-1">
          <mxGeometry x="620" y="60" width="120" height="30" as="geometry" />
        </mxCell>
        <mxCell id="hJfkYiy2iH-WeA1mBsib-6" value="&lt;b&gt;Bean生命周期&lt;/b&gt;" style="text;html=1;strokeColor=none;fillColor=none;align=center;verticalAlign=middle;whiteSpace=wrap;rounded=0;" vertex="1" parent="hJfkYiy2iH-WeA1mBsib-1">
          <mxGeometry x="625" y="30" width="110" height="20" as="geometry" />
        </mxCell>
        <mxCell id="hJfkYiy2iH-WeA1mBsib-10" value="" style="edgeStyle=orthogonalEdgeStyle;rounded=0;orthogonalLoop=1;jettySize=auto;html=1;strokeWidth=2;" edge="1" parent="hJfkYiy2iH-WeA1mBsib-1" source="hJfkYiy2iH-WeA1mBsib-7" target="hJfkYiy2iH-WeA1mBsib-9">
          <mxGeometry relative="1" as="geometry" />
        </mxCell>
        <mxCell id="hJfkYiy2iH-WeA1mBsib-7" value="doCreateBean()" style="rounded=0;whiteSpace=wrap;html=1;strokeWidth=2;gradientColor=#97d077;fillColor=#d5e8d4;strokeColor=#82b366;" vertex="1" parent="hJfkYiy2iH-WeA1mBsib-1">
          <mxGeometry x="620" y="140" width="120" height="30" as="geometry" />
        </mxCell>
        <mxCell id="hJfkYiy2iH-WeA1mBsib-12" value="" style="edgeStyle=orthogonalEdgeStyle;rounded=0;orthogonalLoop=1;jettySize=auto;html=1;strokeWidth=2;" edge="1" parent="hJfkYiy2iH-WeA1mBsib-1" source="hJfkYiy2iH-WeA1mBsib-9" target="hJfkYiy2iH-WeA1mBsib-11">
          <mxGeometry relative="1" as="geometry" />
        </mxCell>
        <mxCell id="hJfkYiy2iH-WeA1mBsib-9" value="实例化Instantiation" style="rounded=0;whiteSpace=wrap;html=1;strokeWidth=2;gradientColor=#97d077;fillColor=#d5e8d4;strokeColor=#82b366;" vertex="1" parent="hJfkYiy2iH-WeA1mBsib-1">
          <mxGeometry x="620" y="210" width="120" height="30" as="geometry" />
        </mxCell>
        <mxCell id="hJfkYiy2iH-WeA1mBsib-14" value="" style="edgeStyle=orthogonalEdgeStyle;rounded=0;orthogonalLoop=1;jettySize=auto;html=1;strokeWidth=2;" edge="1" parent="hJfkYiy2iH-WeA1mBsib-1" source="hJfkYiy2iH-WeA1mBsib-11" target="hJfkYiy2iH-WeA1mBsib-13">
          <mxGeometry relative="1" as="geometry" />
        </mxCell>
        <mxCell id="hJfkYiy2iH-WeA1mBsib-11" value="属性赋值Populate" style="rounded=0;whiteSpace=wrap;html=1;strokeWidth=2;gradientColor=#97d077;fillColor=#d5e8d4;strokeColor=#82b366;" vertex="1" parent="hJfkYiy2iH-WeA1mBsib-1">
          <mxGeometry x="620" y="290" width="120" height="30" as="geometry" />
        </mxCell>
        <mxCell id="hJfkYiy2iH-WeA1mBsib-16" value="" style="edgeStyle=orthogonalEdgeStyle;rounded=0;orthogonalLoop=1;jettySize=auto;html=1;strokeWidth=2;" edge="1" parent="hJfkYiy2iH-WeA1mBsib-1" source="hJfkYiy2iH-WeA1mBsib-13" target="hJfkYiy2iH-WeA1mBsib-15">
          <mxGeometry relative="1" as="geometry" />
        </mxCell>
        <mxCell id="hJfkYiy2iH-WeA1mBsib-13" value="初始化Initialization" style="rounded=0;whiteSpace=wrap;html=1;strokeWidth=2;gradientColor=#97d077;fillColor=#d5e8d4;strokeColor=#82b366;" vertex="1" parent="hJfkYiy2iH-WeA1mBsib-1">
          <mxGeometry x="620" y="360" width="120" height="30" as="geometry" />
        </mxCell>
        <mxCell id="hJfkYiy2iH-WeA1mBsib-15" value="addSingleton()" style="rounded=0;whiteSpace=wrap;html=1;strokeWidth=2;gradientColor=#ea6b66;fillColor=#f8cecc;strokeColor=#b85450;" vertex="1" parent="hJfkYiy2iH-WeA1mBsib-1">
          <mxGeometry x="620" y="440" width="120" height="30" as="geometry" />
        </mxCell>
        <mxCell id="hJfkYiy2iH-WeA1mBsib-19" value="" style="edgeStyle=orthogonalEdgeStyle;rounded=0;orthogonalLoop=1;jettySize=auto;html=1;strokeWidth=2;" edge="1" parent="hJfkYiy2iH-WeA1mBsib-1" source="hJfkYiy2iH-WeA1mBsib-17" target="hJfkYiy2iH-WeA1mBsib-18">
          <mxGeometry relative="1" as="geometry" />
        </mxCell>
        <mxCell id="hJfkYiy2iH-WeA1mBsib-17" value="InstantiationAware&lt;br&gt;BeanPostProcessor" style="rounded=0;whiteSpace=wrap;html=1;strokeWidth=2;" vertex="1" parent="hJfkYiy2iH-WeA1mBsib-1">
          <mxGeometry x="50" y="100" width="140" height="40" as="geometry" />
        </mxCell>
        <mxCell id="hJfkYiy2iH-WeA1mBsib-18" value="postProcess&lt;br&gt;BeforeInstantiation" style="rounded=0;whiteSpace=wrap;html=1;strokeWidth=2;" vertex="1" parent="hJfkYiy2iH-WeA1mBsib-1">
          <mxGeometry x="240" y="100" width="130" height="40" as="geometry" />
        </mxCell>
        <mxCell id="hJfkYiy2iH-WeA1mBsib-22" value="" style="edgeStyle=orthogonalEdgeStyle;rounded=0;orthogonalLoop=1;jettySize=auto;html=1;strokeWidth=2;" edge="1" parent="hJfkYiy2iH-WeA1mBsib-1" source="hJfkYiy2iH-WeA1mBsib-20" target="hJfkYiy2iH-WeA1mBsib-21">
          <mxGeometry relative="1" as="geometry" />
        </mxCell>
        <mxCell id="hJfkYiy2iH-WeA1mBsib-20" value="SmartInstantiationAware&lt;br&gt;BeanPostProcessor" style="rounded=0;whiteSpace=wrap;html=1;strokeWidth=2;" vertex="1" parent="hJfkYiy2iH-WeA1mBsib-1">
          <mxGeometry x="50" y="160" width="140" height="40" as="geometry" />
        </mxCell>
        <mxCell id="hJfkYiy2iH-WeA1mBsib-21" value="determineCandidate&lt;br&gt;Constructors" style="rounded=0;whiteSpace=wrap;html=1;strokeWidth=2;" vertex="1" parent="hJfkYiy2iH-WeA1mBsib-1">
          <mxGeometry x="240" y="160" width="130" height="40" as="geometry" />
        </mxCell>
        <mxCell id="hJfkYiy2iH-WeA1mBsib-23" value="" style="endArrow=none;dashed=1;html=1;strokeWidth=2;exitX=1;exitY=0.5;exitDx=0;exitDy=0;" edge="1" parent="hJfkYiy2iH-WeA1mBsib-1" source="hJfkYiy2iH-WeA1mBsib-18">
          <mxGeometry width="50" height="50" relative="1" as="geometry">
            <mxPoint x="450" y="140" as="sourcePoint" />
            <mxPoint x="680" y="120" as="targetPoint" />
          </mxGeometry>
        </mxCell>
        <mxCell id="hJfkYiy2iH-WeA1mBsib-24" value="可直接返回bean停止创建&lt;br&gt;AOP：解析切面" style="edgeLabel;html=1;align=center;verticalAlign=middle;resizable=0;points=[];" vertex="1" connectable="0" parent="hJfkYiy2iH-WeA1mBsib-23">
          <mxGeometry x="-0.1613" relative="1" as="geometry">
            <mxPoint as="offset" />
          </mxGeometry>
        </mxCell>
        <mxCell id="hJfkYiy2iH-WeA1mBsib-25" value="" style="endArrow=none;dashed=1;html=1;strokeWidth=2;exitX=1;exitY=0.5;exitDx=0;exitDy=0;entryX=0;entryY=0.5;entryDx=0;entryDy=0;edgeStyle=orthogonalEdgeStyle;" edge="1" parent="hJfkYiy2iH-WeA1mBsib-1" source="hJfkYiy2iH-WeA1mBsib-21" target="hJfkYiy2iH-WeA1mBsib-9">
          <mxGeometry width="50" height="50" relative="1" as="geometry">
            <mxPoint x="420" y="260" as="sourcePoint" />
            <mxPoint x="470" y="210" as="targetPoint" />
            <Array as="points">
              <mxPoint x="550" y="180" />
              <mxPoint x="550" y="225" />
            </Array>
          </mxGeometry>
        </mxCell>
        <mxCell id="hJfkYiy2iH-WeA1mBsib-26" value="指定实例化的构造函数" style="edgeLabel;html=1;align=center;verticalAlign=middle;resizable=0;points=[];" vertex="1" connectable="0" parent="hJfkYiy2iH-WeA1mBsib-25">
          <mxGeometry x="-0.4983" relative="1" as="geometry">
            <mxPoint x="16" as="offset" />
          </mxGeometry>
        </mxCell>
        <mxCell id="hJfkYiy2iH-WeA1mBsib-29" value="" style="edgeStyle=orthogonalEdgeStyle;rounded=0;orthogonalLoop=1;jettySize=auto;html=1;strokeWidth=2;" edge="1" parent="hJfkYiy2iH-WeA1mBsib-1" source="hJfkYiy2iH-WeA1mBsib-27" target="hJfkYiy2iH-WeA1mBsib-28">
          <mxGeometry relative="1" as="geometry" />
        </mxCell>
        <mxCell id="hJfkYiy2iH-WeA1mBsib-27" value="MergedBeanDefinition&lt;br&gt;PostProcessor" style="rounded=0;whiteSpace=wrap;html=1;strokeWidth=2;" vertex="1" parent="hJfkYiy2iH-WeA1mBsib-1">
          <mxGeometry x="50" y="220" width="140" height="40" as="geometry" />
        </mxCell>
        <mxCell id="hJfkYiy2iH-WeA1mBsib-28" value="postProcessMerged&lt;br&gt;BeanDefinition" style="rounded=0;whiteSpace=wrap;html=1;strokeWidth=2;" vertex="1" parent="hJfkYiy2iH-WeA1mBsib-1">
          <mxGeometry x="240" y="220" width="130" height="40" as="geometry" />
        </mxCell>
        <mxCell id="hJfkYiy2iH-WeA1mBsib-30" value="" style="endArrow=none;dashed=1;html=1;strokeWidth=2;exitX=1;exitY=0.5;exitDx=0;exitDy=0;edgeStyle=orthogonalEdgeStyle;" edge="1" parent="hJfkYiy2iH-WeA1mBsib-1" source="hJfkYiy2iH-WeA1mBsib-28">
          <mxGeometry width="50" height="50" relative="1" as="geometry">
            <mxPoint x="400" y="270" as="sourcePoint" />
            <mxPoint x="680" y="250" as="targetPoint" />
            <Array as="points">
              <mxPoint x="540" y="240" />
              <mxPoint x="540" y="250" />
            </Array>
          </mxGeometry>
        </mxCell>
        <mxCell id="hJfkYiy2iH-WeA1mBsib-31" value="@AutoWired @Value预解析&lt;br&gt;InjectionMetadata" style="edgeLabel;html=1;align=center;verticalAlign=middle;resizable=0;points=[];" vertex="1" connectable="0" parent="hJfkYiy2iH-WeA1mBsib-30">
          <mxGeometry x="-0.5625" y="1" relative="1" as="geometry">
            <mxPoint x="20" y="1" as="offset" />
          </mxGeometry>
        </mxCell>
        <mxCell id="hJfkYiy2iH-WeA1mBsib-34" value="" style="edgeStyle=orthogonalEdgeStyle;rounded=0;orthogonalLoop=1;jettySize=auto;html=1;strokeWidth=2;" edge="1" parent="hJfkYiy2iH-WeA1mBsib-1" source="hJfkYiy2iH-WeA1mBsib-32" target="hJfkYiy2iH-WeA1mBsib-33">
          <mxGeometry relative="1" as="geometry" />
        </mxCell>
        <mxCell id="hJfkYiy2iH-WeA1mBsib-32" value="SmartInstantiationAware&lt;br&gt;BeanPostProcessor" style="rounded=0;whiteSpace=wrap;html=1;strokeWidth=2;" vertex="1" parent="hJfkYiy2iH-WeA1mBsib-1">
          <mxGeometry x="50" y="280" width="140" height="40" as="geometry" />
        </mxCell>
        <mxCell id="hJfkYiy2iH-WeA1mBsib-33" value="getEarlyBeanReference" style="rounded=0;whiteSpace=wrap;html=1;strokeWidth=2;" vertex="1" parent="hJfkYiy2iH-WeA1mBsib-1">
          <mxGeometry x="240" y="280" width="130" height="40" as="geometry" />
        </mxCell>
        <mxCell id="hJfkYiy2iH-WeA1mBsib-35" value="" style="endArrow=none;dashed=1;html=1;strokeWidth=2;edgeStyle=orthogonalEdgeStyle;exitX=1;exitY=0.5;exitDx=0;exitDy=0;" edge="1" parent="hJfkYiy2iH-WeA1mBsib-1" source="hJfkYiy2iH-WeA1mBsib-33">
          <mxGeometry width="50" height="50" relative="1" as="geometry">
            <mxPoint x="380" y="300" as="sourcePoint" />
            <mxPoint x="690" y="260" as="targetPoint" />
            <Array as="points">
              <mxPoint x="490" y="300" />
              <mxPoint x="490" y="260" />
            </Array>
          </mxGeometry>
        </mxCell>
        <mxCell id="hJfkYiy2iH-WeA1mBsib-36" value="解决循环引用AOP" style="edgeLabel;html=1;align=center;verticalAlign=middle;resizable=0;points=[];" vertex="1" connectable="0" parent="hJfkYiy2iH-WeA1mBsib-35">
          <mxGeometry x="-0.6171" y="1" relative="1" as="geometry">
            <mxPoint x="-7" y="1" as="offset" />
          </mxGeometry>
        </mxCell>
        <mxCell id="hJfkYiy2iH-WeA1mBsib-39" value="" style="edgeStyle=orthogonalEdgeStyle;rounded=0;orthogonalLoop=1;jettySize=auto;html=1;strokeWidth=2;" edge="1" parent="hJfkYiy2iH-WeA1mBsib-1" source="hJfkYiy2iH-WeA1mBsib-37" target="hJfkYiy2iH-WeA1mBsib-38">
          <mxGeometry relative="1" as="geometry" />
        </mxCell>
        <mxCell id="hJfkYiy2iH-WeA1mBsib-37" value="InstantiationAwareBean&lt;br&gt;PostProcessor" style="rounded=0;whiteSpace=wrap;html=1;strokeWidth=2;" vertex="1" parent="hJfkYiy2iH-WeA1mBsib-1">
          <mxGeometry x="50" y="340" width="140" height="40" as="geometry" />
        </mxCell>
        <mxCell id="hJfkYiy2iH-WeA1mBsib-38" value="postProcessAfter&lt;br&gt;Instantiation" style="rounded=0;whiteSpace=wrap;html=1;strokeWidth=2;" vertex="1" parent="hJfkYiy2iH-WeA1mBsib-1">
          <mxGeometry x="240" y="340" width="130" height="40" as="geometry" />
        </mxCell>
        <mxCell id="hJfkYiy2iH-WeA1mBsib-40" value="" style="endArrow=none;dashed=1;html=1;strokeWidth=2;exitX=1;exitY=0.5;exitDx=0;exitDy=0;entryX=0;entryY=0.25;entryDx=0;entryDy=0;edgeStyle=orthogonalEdgeStyle;" edge="1" parent="hJfkYiy2iH-WeA1mBsib-1" source="hJfkYiy2iH-WeA1mBsib-38" target="hJfkYiy2iH-WeA1mBsib-11">
          <mxGeometry width="50" height="50" relative="1" as="geometry">
            <mxPoint x="420" y="380" as="sourcePoint" />
            <mxPoint x="470" y="330" as="targetPoint" />
          </mxGeometry>
        </mxCell>
        <mxCell id="hJfkYiy2iH-WeA1mBsib-41" value="中止赋值" style="edgeLabel;html=1;align=center;verticalAlign=middle;resizable=0;points=[];" vertex="1" connectable="0" parent="hJfkYiy2iH-WeA1mBsib-40">
          <mxGeometry x="-0.7248" y="2" relative="1" as="geometry">
            <mxPoint as="offset" />
          </mxGeometry>
        </mxCell>
        <mxCell id="hJfkYiy2iH-WeA1mBsib-44" value="" style="edgeStyle=orthogonalEdgeStyle;rounded=0;orthogonalLoop=1;jettySize=auto;html=1;strokeWidth=2;" edge="1" parent="hJfkYiy2iH-WeA1mBsib-1" source="hJfkYiy2iH-WeA1mBsib-42" target="hJfkYiy2iH-WeA1mBsib-43">
          <mxGeometry relative="1" as="geometry" />
        </mxCell>
        <mxCell id="hJfkYiy2iH-WeA1mBsib-42" value="InstantiationAwareBean&lt;br&gt;PostProcessor" style="rounded=0;whiteSpace=wrap;html=1;strokeWidth=2;" vertex="1" parent="hJfkYiy2iH-WeA1mBsib-1">
          <mxGeometry x="50" y="400" width="140" height="40" as="geometry" />
        </mxCell>
        <mxCell id="hJfkYiy2iH-WeA1mBsib-43" value="postProcessProperty&lt;br&gt;Values" style="rounded=0;whiteSpace=wrap;html=1;strokeWidth=2;" vertex="1" parent="hJfkYiy2iH-WeA1mBsib-1">
          <mxGeometry x="240" y="400" width="130" height="40" as="geometry" />
        </mxCell>
        <mxCell id="hJfkYiy2iH-WeA1mBsib-45" value="" style="endArrow=none;dashed=1;html=1;strokeWidth=2;exitX=1;exitY=0.5;exitDx=0;exitDy=0;entryX=0;entryY=0.75;entryDx=0;entryDy=0;edgeStyle=orthogonalEdgeStyle;" edge="1" parent="hJfkYiy2iH-WeA1mBsib-1" source="hJfkYiy2iH-WeA1mBsib-43" target="hJfkYiy2iH-WeA1mBsib-11">
          <mxGeometry width="50" height="50" relative="1" as="geometry">
            <mxPoint x="430" y="450" as="sourcePoint" />
            <mxPoint x="480" y="400" as="targetPoint" />
            <Array as="points">
              <mxPoint x="510" y="420" />
              <mxPoint x="510" y="313" />
            </Array>
          </mxGeometry>
        </mxCell>
        <mxCell id="hJfkYiy2iH-WeA1mBsib-46" value="注入属性&lt;br&gt;PropertValues&lt;br&gt;@AutoWired在这里&lt;br&gt;进行DI" style="edgeLabel;html=1;align=center;verticalAlign=middle;resizable=0;points=[];" vertex="1" connectable="0" parent="hJfkYiy2iH-WeA1mBsib-45">
          <mxGeometry x="-0.7315" relative="1" as="geometry">
            <mxPoint x="22" as="offset" />
          </mxGeometry>
        </mxCell>
        <mxCell id="hJfkYiy2iH-WeA1mBsib-49" value="" style="edgeStyle=orthogonalEdgeStyle;rounded=0;orthogonalLoop=1;jettySize=auto;html=1;strokeWidth=2;" edge="1" parent="hJfkYiy2iH-WeA1mBsib-1" source="hJfkYiy2iH-WeA1mBsib-47" target="hJfkYiy2iH-WeA1mBsib-48">
          <mxGeometry relative="1" as="geometry" />
        </mxCell>
        <mxCell id="hJfkYiy2iH-WeA1mBsib-47" value="BeanPostProcess" style="rounded=0;whiteSpace=wrap;html=1;strokeWidth=2;" vertex="1" parent="hJfkYiy2iH-WeA1mBsib-1">
          <mxGeometry x="50" y="460" width="140" height="40" as="geometry" />
        </mxCell>
        <mxCell id="hJfkYiy2iH-WeA1mBsib-48" value="postProcessBefore&lt;br&gt;Initialization" style="rounded=0;whiteSpace=wrap;html=1;strokeWidth=2;" vertex="1" parent="hJfkYiy2iH-WeA1mBsib-1">
          <mxGeometry x="240" y="460" width="130" height="40" as="geometry" />
        </mxCell>
        <mxCell id="hJfkYiy2iH-WeA1mBsib-50" value="" style="endArrow=none;dashed=1;html=1;strokeWidth=2;exitX=1;exitY=0.5;exitDx=0;exitDy=0;entryX=0;entryY=0.25;entryDx=0;entryDy=0;edgeStyle=orthogonalEdgeStyle;" edge="1" parent="hJfkYiy2iH-WeA1mBsib-1" source="hJfkYiy2iH-WeA1mBsib-48" target="hJfkYiy2iH-WeA1mBsib-13">
          <mxGeometry width="50" height="50" relative="1" as="geometry">
            <mxPoint x="420" y="500" as="sourcePoint" />
            <mxPoint x="470" y="450" as="targetPoint" />
            <Array as="points">
              <mxPoint x="520" y="480" />
              <mxPoint x="520" y="368" />
            </Array>
          </mxGeometry>
        </mxCell>
        <mxCell id="hJfkYiy2iH-WeA1mBsib-51" value="初始化前调用&lt;br&gt;@PostContruct" style="edgeLabel;html=1;align=center;verticalAlign=middle;resizable=0;points=[];" vertex="1" connectable="0" parent="hJfkYiy2iH-WeA1mBsib-50">
          <mxGeometry x="-0.691" y="2" relative="1" as="geometry">
            <mxPoint x="14" y="2" as="offset" />
          </mxGeometry>
        </mxCell>
        <mxCell id="hJfkYiy2iH-WeA1mBsib-54" value="" style="edgeStyle=orthogonalEdgeStyle;rounded=0;orthogonalLoop=1;jettySize=auto;html=1;strokeWidth=2;" edge="1" parent="hJfkYiy2iH-WeA1mBsib-1" source="hJfkYiy2iH-WeA1mBsib-52" target="hJfkYiy2iH-WeA1mBsib-53">
          <mxGeometry relative="1" as="geometry" />
        </mxCell>
        <mxCell id="hJfkYiy2iH-WeA1mBsib-52" value="BeanPostProcess" style="rounded=0;whiteSpace=wrap;html=1;strokeWidth=2;" vertex="1" parent="hJfkYiy2iH-WeA1mBsib-1">
          <mxGeometry x="50" y="520" width="140" height="40" as="geometry" />
        </mxCell>
        <mxCell id="hJfkYiy2iH-WeA1mBsib-53" value="postProcessAfter&lt;br&gt;Initialization" style="rounded=0;whiteSpace=wrap;html=1;strokeWidth=2;" vertex="1" parent="hJfkYiy2iH-WeA1mBsib-1">
          <mxGeometry x="240" y="520" width="130" height="40" as="geometry" />
        </mxCell>
        <mxCell id="hJfkYiy2iH-WeA1mBsib-55" value="" style="endArrow=none;dashed=1;html=1;strokeWidth=2;exitX=1;exitY=0.5;exitDx=0;exitDy=0;entryX=0;entryY=0.75;entryDx=0;entryDy=0;edgeStyle=orthogonalEdgeStyle;" edge="1" parent="hJfkYiy2iH-WeA1mBsib-1" source="hJfkYiy2iH-WeA1mBsib-53" target="hJfkYiy2iH-WeA1mBsib-13">
          <mxGeometry width="50" height="50" relative="1" as="geometry">
            <mxPoint x="430" y="580" as="sourcePoint" />
            <mxPoint x="480" y="530" as="targetPoint" />
            <Array as="points">
              <mxPoint x="530" y="540" />
              <mxPoint x="530" y="383" />
            </Array>
          </mxGeometry>
        </mxCell>
        <mxCell id="hJfkYiy2iH-WeA1mBsib-56" value="初始化后&lt;br&gt;AOP：创建代理" style="edgeLabel;html=1;align=center;verticalAlign=middle;resizable=0;points=[];" vertex="1" connectable="0" parent="hJfkYiy2iH-WeA1mBsib-55">
          <mxGeometry x="-0.7104" relative="1" as="geometry">
            <mxPoint x="21" as="offset" />
          </mxGeometry>
        </mxCell>
        <mxCell id="hJfkYiy2iH-WeA1mBsib-59" value="" style="edgeStyle=orthogonalEdgeStyle;rounded=0;orthogonalLoop=1;jettySize=auto;html=1;strokeWidth=2;" edge="1" parent="hJfkYiy2iH-WeA1mBsib-1" source="hJfkYiy2iH-WeA1mBsib-57" target="hJfkYiy2iH-WeA1mBsib-58">
          <mxGeometry relative="1" as="geometry" />
        </mxCell>
        <mxCell id="hJfkYiy2iH-WeA1mBsib-57" value="DestructionAwareBean&lt;br&gt;PostProcessor" style="rounded=0;whiteSpace=wrap;html=1;strokeWidth=2;" vertex="1" parent="hJfkYiy2iH-WeA1mBsib-1">
          <mxGeometry x="50" y="584.5" width="140" height="40" as="geometry" />
        </mxCell>
        <mxCell id="hJfkYiy2iH-WeA1mBsib-58" value="requiresDestruction" style="rounded=0;whiteSpace=wrap;html=1;strokeWidth=2;" vertex="1" parent="hJfkYiy2iH-WeA1mBsib-1">
          <mxGeometry x="240" y="585" width="130" height="40" as="geometry" />
        </mxCell>
        <mxCell id="hJfkYiy2iH-WeA1mBsib-60" value="销毁" style="whiteSpace=wrap;html=1;rounded=0;strokeWidth=2;" vertex="1" parent="hJfkYiy2iH-WeA1mBsib-1">
          <mxGeometry x="620" y="574.5" width="120" height="60" as="geometry" />
        </mxCell>
        <mxCell id="hJfkYiy2iH-WeA1mBsib-63" value="" style="endArrow=none;dashed=1;html=1;strokeWidth=2;exitX=1;exitY=0.5;exitDx=0;exitDy=0;entryX=0;entryY=0.5;entryDx=0;entryDy=0;" edge="1" parent="hJfkYiy2iH-WeA1mBsib-1" source="hJfkYiy2iH-WeA1mBsib-58" target="hJfkYiy2iH-WeA1mBsib-60">
          <mxGeometry width="50" height="50" relative="1" as="geometry">
            <mxPoint x="430" y="640" as="sourcePoint" />
            <mxPoint x="480" y="590" as="targetPoint" />
          </mxGeometry>
        </mxCell>
      </root>
    </mxGraphModel>
  </diagram>
</mxfile>
